<mxfile host="app.diagrams.net" modified="2024-04-16T20:45:09.540Z" agent="Mozilla/5.0 (Windows NT 10.0; Win64; x64) AppleWebKit/537.36 (KHTML, like Gecko) Chrome/123.0.0.0 Safari/537.36" version="24.2.5" etag="3zs98WRr5HOad6nAbjn_" type="github">
  <diagram name="PÃ¡gina-1" id="Z_hBXxPXeU6PIPrs10KU">
    <mxGraphModel>
      <root>
        <mxCell id="0" />
        <mxCell id="1" parent="0" />
      </root>
    </mxGraphModel>
  </diagram>
</mxfile>
